<svg version="1.1" id="Layer_1" xmlns="http://www.w3.org/2000/svg" xmlns:xlink="http://www.w3.org/1999/xlink" x="0px" y="0px"
	 width="100%" viewBox="0 0 500 500" enable-background="new 0 0 500 500" xml:space="preserve">
<path fill="#2B4257" opacity="1.000000" stroke="none" 
	d="
M330.000000,501.000000 
	C221.333359,501.000000 113.166695,500.979218 5.000180,501.095398 
	C1.576353,501.099060 0.903033,500.423889 0.905298,497.000031 
	C1.013776,333.000122 1.013757,169.000153 0.905338,5.000259 
	C0.903075,1.576985 1.575757,0.903020 4.999864,0.905285 
	C168.999756,1.013775 332.999725,1.013760 496.999634,0.905354 
	C500.422638,0.903092 501.096985,1.575407 501.094727,4.999744 
	C500.986206,168.999634 500.986237,332.999603 501.094604,496.999512 
	C501.096893,500.422272 500.426117,501.105713 497.000183,501.097229 
	C441.500366,500.959808 386.000153,501.000000 330.000000,501.000000 
z"/>
<path fill="#2B292A" opacity="1.000000" stroke="none" 
	d="
M163.163666,207.949921 
	C164.791901,187.479019 163.631531,167.407898 163.937134,147.354248 
	C164.083130,137.773895 164.783005,136.976562 174.576447,136.967392 
	C185.363098,136.957306 196.149750,136.943558 207.395813,136.919952 
	C208.980698,135.939896 210.214020,135.238159 212.184052,135.357971 
	C215.883774,135.044464 219.283737,135.205887 222.085144,132.924866 
	C222.727112,132.402130 223.735764,132.084579 224.456024,132.450897 
	C228.596924,134.556931 232.208496,132.312332 235.941681,131.173386 
	C249.364517,127.078224 262.292725,129.045853 275.348053,134.400726 
	C276.754547,134.782959 277.704407,135.331055 279.199188,135.315247 
	C282.595642,134.695511 285.574524,135.098373 288.965332,135.415604 
	C290.210297,135.235519 291.029388,135.300415 292.211853,135.730652 
	C292.822449,136.052444 293.056519,136.199478 293.618713,136.600098 
	C305.604401,136.892120 317.262024,136.916122 328.919525,136.974335 
	C336.103882,137.010208 338.003326,138.931320 338.016754,146.220032 
	C338.054199,166.538666 338.062439,186.857346 338.107971,207.652008 
	C341.108795,215.147125 339.949310,222.494934 339.810822,230.229126 
	C339.939667,232.907471 340.091248,235.115814 340.051636,237.809967 
	C339.194275,245.257462 340.710205,252.239899 339.797241,259.672424 
	C337.854126,266.382965 332.986359,267.956146 327.275909,268.011414 
	C313.127228,268.148438 298.976654,267.966736 284.829041,268.132874 
	C282.135956,268.164490 278.009644,266.716003 277.527161,271.081543 
	C277.004700,275.808777 281.268372,274.661652 283.990051,275.014923 
	C287.697632,275.496216 289.660156,277.522797 289.955658,281.199463 
	C290.102417,283.025574 290.103821,284.861572 290.005585,286.689667 
	C289.721649,291.972992 287.936493,293.939453 282.608490,293.982910 
	C261.635162,294.154022 240.660263,294.137238 219.686752,293.993744 
	C214.034851,293.955048 212.248093,292.025269 211.986755,286.478546 
	C211.908417,284.815857 211.924622,283.149048 212.022217,281.486450 
	C212.251648,277.578949 214.234406,275.339478 218.218994,275.029022 
	C219.544708,274.925751 220.887436,274.970673 222.187302,274.636383 
	C223.882156,274.200531 224.649200,273.047852 224.617264,271.338867 
	C224.584198,269.569397 223.618607,268.597565 221.921448,268.292725 
	C220.271576,267.996399 218.602570,268.074219 216.939911,268.070801 
	C202.957092,268.042053 188.973953,268.136475 174.991577,268.018585 
	C169.761444,267.974518 164.997604,266.895294 162.597504,260.892151 
	C161.472733,255.009735 161.905823,249.543167 162.192978,244.094925 
	C162.281052,242.423889 162.488312,240.804535 161.729446,238.768875 
	C160.926392,236.219467 160.898743,234.082458 161.435028,231.486435 
	C162.634781,223.531418 161.033798,215.826019 163.163666,207.949921 
z"/>
<path fill="#F83232" opacity="1.000000" stroke="none" 
	d="
M336.200775,321.535065 
	C335.651001,323.148804 334.563171,323.045563 333.608398,322.992218 
	C306.772491,321.493164 280.102783,326.140686 253.273102,325.136292 
	C244.963364,324.825226 236.608978,325.488434 228.315323,325.008789 
	C207.868576,323.826294 187.442932,322.306213 166.477448,322.885193 
	C164.886246,321.220398 165.238785,319.803345 166.876358,318.202393 
	C169.256683,316.824219 171.445724,316.970856 173.598633,316.958496 
	C180.747162,316.917450 187.896286,316.897064 195.044373,316.956909 
	C200.536377,317.002869 206.029037,317.441620 210.323227,312.818115 
	C211.736313,311.296661 213.982803,311.491394 216.002045,311.492432 
	C238.944214,311.504211 261.886475,311.528839 284.828461,311.465118 
	C287.817017,311.456818 290.459869,312.072876 292.579224,314.182312 
	C294.901947,316.494110 297.730408,316.929535 300.821533,316.948883 
	C311.293549,317.014435 321.767395,316.740723 332.688171,317.193634 
	C333.421021,317.396545 333.703430,317.505981 334.382507,317.829773 
	C335.806610,318.806305 336.247131,319.848755 336.200775,321.535065 
z"/>
<path fill="#E53336" opacity="1.000000" stroke="none" 
	d="
M293.293030,136.620453 
	C292.330292,136.752396 291.600647,136.808502 290.503906,136.842773 
	C285.797211,135.759003 284.643158,131.686157 282.787476,128.531769 
	C280.728271,125.031479 278.101501,123.945633 274.236267,123.977524 
	C258.807648,124.104843 243.377167,124.043823 227.947418,124.019485 
	C225.632095,124.015839 223.296600,124.217422 220.597534,123.444740 
	C219.646759,122.997658 219.210968,122.601448 218.944687,121.657303 
	C218.353638,118.748779 218.984360,117.642181 221.850906,117.656616 
	C241.322433,117.754593 260.794708,117.719414 280.266663,117.687668 
	C281.700653,117.685333 282.866425,117.993095 284.068787,119.168365 
	C285.915833,119.452148 286.175323,120.800446 286.782288,122.260437 
	C288.279816,127.310684 291.565674,131.019379 293.623291,135.739517 
	C293.669861,136.075928 293.526123,136.544647 293.293030,136.620453 
z"/>
<path fill="#F13232" opacity="1.000000" stroke="none" 
	d="
M163.161865,207.771912 
	C164.308899,215.010010 164.037140,222.512100 163.175751,230.362122 
	C152.630356,237.748962 149.303452,249.724365 142.786301,259.454193 
	C141.236237,261.768372 140.246185,264.505951 137.159500,265.958252 
	C135.975128,266.156189 135.217285,265.996002 134.242325,265.290405 
	C134.973816,260.028015 138.390350,256.298157 140.702286,252.010498 
	C144.369492,245.209381 148.308182,238.554688 152.251373,231.504974 
	C152.172729,230.446548 152.366501,229.833542 153.235596,229.239822 
	C153.453796,222.793289 157.426300,218.071960 160.262787,212.511261 
	C160.178375,211.448578 160.374191,210.833542 161.252655,210.242554 
	C162.091599,209.454010 162.594284,208.740387 163.161865,207.771912 
z"/>
<path fill="#F33232" opacity="1.000000" stroke="none" 
	d="
M338.291565,230.732330 
	C338.192200,223.264236 338.153503,216.158493 338.124268,208.590393 
	C341.491241,211.843582 343.217773,216.583527 346.208374,220.912125 
	C347.240967,221.237152 347.576904,221.782242 347.646545,222.856964 
	C346.838104,226.024338 347.311066,228.494385 348.893616,231.086533 
	C353.426514,238.511093 357.663757,246.116119 362.220306,253.906509 
	C363.235474,254.239578 363.579834,254.776245 363.680908,255.836868 
	C365.049927,258.915710 366.474030,261.655609 367.788544,264.738708 
	C367.145203,265.716309 366.437256,265.991486 365.252625,266.049622 
	C362.347260,265.367523 361.262085,263.228455 360.037170,261.268219 
	C356.249115,255.206177 352.580109,249.058517 349.327576,242.703979 
	C346.756409,237.680740 343.402557,233.650970 338.291565,230.732330 
z"/>
<path fill="#F0F1F3" opacity="1.000000" stroke="none" 
	d="
M196.660126,368.507355 
	C193.047272,356.992767 196.782654,350.020782 207.593964,348.770081 
	C209.084976,347.949036 210.199615,347.854340 211.673523,348.860596 
	C214.356323,350.693970 216.955353,351.949524 218.463974,354.914062 
	C220.041885,355.797638 220.866806,356.744049 220.198639,358.678711 
	C219.827362,362.655182 219.510788,366.256317 216.973236,369.612793 
	C216.749176,370.753357 216.284805,371.278259 215.209625,371.616638 
	C210.080338,373.790558 205.319748,374.154938 200.238739,371.494141 
	C197.492630,372.311188 197.108887,370.413391 196.660126,368.507355 
z"/>
<path fill="#ECEEF0" opacity="1.000000" stroke="none" 
	d="
M310.240662,370.884460 
	C309.679016,369.716125 309.200775,368.954742 308.494080,368.046509 
	C307.416626,367.439697 306.688843,366.865875 306.360229,365.540771 
	C306.410126,364.961975 306.484039,364.737366 306.802856,364.256226 
	C307.092804,360.194672 307.155792,356.389740 307.174255,352.584595 
	C307.182159,350.955078 307.541687,349.386993 309.392578,349.294128 
	C311.590424,349.183838 311.969696,350.859070 311.946075,352.695007 
	C311.909851,355.509491 311.894958,358.325775 311.952026,361.139648 
	C312.079468,367.423096 314.029419,369.182159 320.882385,368.826813 
	C321.498535,367.050995 322.673492,366.161987 324.322388,365.300751 
	C325.813568,361.314270 325.096039,357.293640 325.284515,353.319092 
	C325.372620,351.460571 325.234009,349.256317 327.824280,349.329163 
	C330.074615,349.392395 329.993988,351.404999 329.980743,353.111206 
	C329.962616,355.442902 329.985229,357.774841 329.974670,360.106628 
	C329.929321,370.128967 325.756897,373.940338 315.365723,373.147766 
	C312.703400,374.378693 311.338257,373.271545 310.240662,370.884460 
z"/>
<path fill="#EC3334" opacity="1.000000" stroke="none" 
	d="
M133.754333,265.255249 
	C134.701645,264.989197 135.430740,264.983215 136.524261,264.975006 
	C138.551620,265.948517 139.361450,267.608246 140.285065,269.183624 
	C148.688324,283.516357 156.879349,297.972198 165.291153,312.300140 
	C166.455902,314.283997 167.869461,316.257568 167.004211,319.172455 
	C166.682159,320.435181 166.361023,321.326782 166.028336,322.509155 
	C161.562378,319.502441 160.100815,314.172028 157.257416,309.787872 
	C154.646698,305.762451 152.391068,301.506714 149.776825,297.095428 
	C148.764740,296.760071 148.419083,296.224152 148.312714,295.165344 
	C143.902802,287.001556 139.440140,279.176849 134.774216,271.095856 
	C133.763290,270.759369 133.417465,270.224243 133.308868,269.167358 
	C132.850769,267.694000 133.082581,266.598755 133.754333,265.255249 
z"/>
<path fill="#F4F5F6" opacity="1.000000" stroke="none" 
	d="
M165.428528,369.124329 
	C161.418503,365.482605 153.689911,366.544006 151.150864,370.867004 
	C150.260391,372.383087 149.414124,373.972412 147.409424,372.961304 
	C145.117630,371.805389 146.631378,370.119568 147.282715,368.758698 
	C148.701965,365.793365 150.269333,362.898895 151.836136,359.597351 
	C150.895065,358.281128 151.462753,357.309113 152.020325,356.085938 
	C152.632706,355.364319 153.037552,354.882141 153.478394,354.041107 
	C153.968445,352.737518 154.449234,351.818420 155.776428,351.187317 
	C158.308746,348.026215 160.211563,348.249268 161.872589,351.607330 
	C163.932632,355.772064 166.069077,359.899048 168.431824,364.299927 
	C170.944168,364.770416 171.335464,366.796814 172.446350,368.575073 
	C172.679764,369.099335 172.767990,369.312225 172.933105,369.863586 
	C173.043716,370.666138 173.013504,371.125488 172.768921,371.894348 
	C172.460388,372.364624 172.292023,372.519958 171.783508,372.724121 
	C170.215988,373.247375 168.992844,373.622253 167.585083,372.483398 
	C165.555008,372.156738 165.084488,371.039246 165.428528,369.124329 
z"/>
<path fill="#F7F8F9" opacity="1.000000" stroke="none" 
	d="
M277.752075,356.851105 
	C276.604889,363.721588 274.406586,366.044281 267.781708,366.332611 
	C264.368103,366.481140 261.107849,366.129242 261.839081,371.207458 
	C261.993866,372.282532 260.849152,372.782349 259.400513,373.010132 
	C257.642181,373.350586 257.034851,372.600647 257.078552,371.214874 
	C257.497162,365.058014 257.671814,359.110962 257.609772,353.166321 
	C257.579163,350.231781 258.599487,348.897522 261.652588,349.068390 
	C266.981110,349.366669 272.815613,347.945404 276.609589,354.015991 
	C277.958862,354.754517 278.372192,355.606415 277.752075,356.851105 
z"/>
<path fill="#EE3234" opacity="1.000000" stroke="none" 
	d="
M364.481018,265.271057 
	C365.514038,265.057281 366.236481,265.043549 367.318970,265.055908 
	C367.678955,265.081970 368.031982,265.129089 368.209015,265.148315 
	C369.929840,265.259674 369.544464,266.318298 369.134094,267.625153 
	C367.187012,270.730072 365.531860,273.453094 363.762268,276.505920 
	C363.833984,277.559784 363.635162,278.169830 362.769897,278.761078 
	C357.916412,286.615967 353.394562,294.390564 348.753937,302.497406 
	C348.829041,303.556854 348.630341,304.168976 347.758667,304.759521 
	C344.182861,310.341156 340.940918,315.844940 337.521820,321.611511 
	C336.022095,321.622955 335.500153,320.717133 335.174500,319.214294 
	C334.963043,318.950562 335.025513,318.975769 335.022888,319.009369 
	C333.603363,317.424652 334.481018,315.848938 335.285217,314.436432 
	C344.427429,298.378906 353.664093,282.375610 363.066406,266.468597 
	C363.317688,266.043457 363.753784,265.750641 364.481018,265.271057 
z"/>
<path fill="#F4F5F6" opacity="1.000000" stroke="none" 
	d="
M290.568848,348.658875 
	C293.943207,349.009277 294.232819,351.667145 295.271332,353.568970 
	C297.065613,356.854797 298.711975,360.221344 300.693817,363.777039 
	C301.509064,364.443481 302.155579,364.722229 302.985504,365.362122 
	C304.120575,366.777008 304.722595,368.077332 305.083008,369.866028 
	C305.039520,370.727448 304.984528,371.220215 304.839905,372.078186 
	C304.360077,373.146057 303.720978,373.521423 302.617004,373.757843 
	C302.228210,373.425171 302.071716,373.295135 301.613953,373.418152 
	C297.346863,373.779175 297.848846,369.973541 296.225342,367.576233 
	C293.172668,367.241211 290.335114,367.327637 287.530121,367.065338 
	C285.615845,366.886383 284.859802,367.773560 284.359314,369.729767 
	C284.546967,372.989410 283.572937,374.706146 280.270142,373.835022 
	C278.311340,372.180908 278.766235,370.718536 279.624451,369.102264 
	C281.096924,366.329041 282.473389,363.504822 283.920471,360.350494 
	C283.818542,359.819885 283.686310,359.640778 283.544647,359.127899 
	C284.108673,356.863708 284.896149,355.041534 286.374512,353.195557 
	C286.947876,351.857239 287.398438,350.839661 288.815582,350.182495 
	C289.095154,349.999786 289.273804,349.950592 289.281921,349.858276 
	C289.145111,349.062408 289.427612,348.655914 290.568848,348.658875 
z"/>
<path fill="#F4F5F6" opacity="1.000000" stroke="none" 
	d="
M172.327805,363.372498 
	C175.273453,362.786438 176.014008,364.350403 176.606171,366.255066 
	C177.454834,368.984589 179.556961,369.590851 182.123260,369.307465 
	C184.843124,369.007141 186.338730,367.363098 186.643539,364.789368 
	C186.896210,362.655853 186.615250,360.459900 186.857361,358.324097 
	C187.275269,354.637360 186.700272,352.129517 182.069626,352.966003 
	C180.775085,353.199921 179.109131,353.092438 178.964874,351.335541 
	C178.792877,349.240753 180.510818,349.115356 182.071777,349.094238 
	C183.567520,349.073975 185.075470,349.207458 186.557404,349.062439 
	C190.104309,348.715271 191.324875,350.325470 191.058517,353.737091 
	C190.697495,358.361450 191.527344,363.036346 190.442596,368.071350 
	C191.184311,371.468353 188.749496,371.868439 186.580078,372.717438 
	C183.389267,373.283295 180.585052,373.650543 177.372101,372.949158 
	C176.436737,373.450317 175.798355,373.363861 174.848404,373.029541 
	C173.607147,372.279694 173.169403,371.235016 172.211365,370.215637 
	C171.983963,369.988098 172.001740,370.013763 172.007660,370.028229 
	C171.244400,367.841949 170.156342,365.650299 172.327805,363.372498 
z"/>
<path fill="#F4F5F6" opacity="1.000000" stroke="none" 
	d="
M222.126694,353.828613 
	C222.839981,352.143036 221.225250,350.092133 223.571152,349.372284 
	C225.386856,348.815125 226.185120,350.298035 227.098328,351.430939 
	C227.715668,352.196808 228.298981,352.990082 229.134903,353.982452 
	C231.467194,354.134979 232.257172,356.160156 234.102539,357.131897 
	C236.258423,354.957031 238.075485,352.584198 240.001755,350.303619 
	C240.772476,349.391144 241.793167,348.733826 243.022247,349.732849 
	C244.186127,350.678986 244.004425,351.727081 243.228027,352.792511 
	C241.955185,354.539185 240.743896,356.339142 239.362366,357.996368 
	C236.639389,361.262665 234.498856,364.626343 235.177673,369.226532 
	C235.479523,371.272156 235.154236,373.475769 231.646317,372.592651 
	C230.476624,372.113739 230.322571,371.441040 230.549835,370.327972 
	C232.422302,362.572235 226.777649,358.536743 222.790909,353.575623 
	C222.270386,353.772552 222.101257,353.968719 222.126694,353.828613 
z"/>
<path fill="#F7F8F9" opacity="1.000000" stroke="none" 
	d="
M337.062958,349.575348 
	C340.165588,349.093170 340.261230,350.938965 340.256866,352.895905 
	C340.247253,357.213348 340.401978,361.537445 340.205750,365.845917 
	C340.083313,368.534027 341.122528,369.319519 343.641113,369.163086 
	C346.287506,368.998627 348.952545,369.130463 351.609436,369.140533 
	C353.028351,369.145935 354.499146,369.468597 354.567932,371.092682 
	C354.642212,372.846619 353.105530,373.008942 351.722412,373.010834 
	C347.404938,373.016754 343.087494,373.009491 338.770020,373.012604 
	C337.317078,373.013641 335.912018,372.668915 335.975159,370.947296 
	C336.233948,363.894257 334.906586,356.783539 337.062958,349.575348 
z"/>
<path fill="#D9DDE1" opacity="1.000000" stroke="none" 
	d="
M157.522125,398.886963 
	C158.133423,401.071655 158.618500,403.629791 160.672073,399.895477 
	C161.810791,397.824799 162.062988,393.953949 164.463501,394.187378 
	C166.878265,394.422150 167.051514,398.372101 168.735519,400.769592 
	C169.259186,401.303619 169.574738,401.374847 170.211121,401.202454 
	C171.408463,399.060394 172.337463,396.960419 173.385773,394.529663 
	C173.228470,393.448181 173.410721,392.821411 174.368958,392.269165 
	C177.470993,394.364594 174.756454,396.084015 174.092926,397.740173 
	C172.953644,400.583649 172.429855,405.220673 169.776154,405.509460 
	C167.178009,405.792206 167.103043,400.821869 165.225937,398.593048 
	C165.012436,398.339508 164.770325,398.110107 164.465088,397.789185 
	C162.206818,399.479614 161.780319,402.267090 160.476578,404.506622 
	C159.360153,406.424408 158.400497,406.549652 157.449615,404.495697 
	C155.987076,401.336578 154.579407,398.151520 153.192978,394.958160 
	C152.882339,394.242615 152.419342,393.137054 153.410965,392.840881 
	C154.704956,392.454468 154.844711,393.848236 155.484558,394.908691 
	C157.230896,395.771301 158.105530,396.786560 157.522125,398.886963 
z"/>
<path fill="#D9DDE1" opacity="1.000000" stroke="none" 
	d="
M346.402283,405.068970 
	C345.920715,404.595123 345.713806,404.336304 345.480438,404.104065 
	C341.243134,399.886871 339.901245,400.187897 337.945374,405.733459 
	C336.709839,401.746643 336.201935,397.266479 337.596680,393.619232 
	C338.782318,390.518768 342.838470,392.143219 345.583588,392.836517 
	C348.158081,393.486725 349.873993,395.844910 348.599304,398.086823 
	C347.111603,400.703369 345.603821,402.700378 348.225433,405.279541 
	C347.978333,405.440613 347.728882,405.732483 347.484802,405.728027 
	C347.208862,405.722992 346.937775,405.451843 346.402283,405.068970 
z"/>
<path fill="#CED3D8" opacity="1.000000" stroke="none" 
	d="
M224.795197,392.857239 
	C228.749542,395.404175 229.615280,398.698547 227.897400,402.515961 
	C225.993774,406.746216 222.068497,406.165131 218.415405,406.096619 
	C216.883728,406.067871 216.372986,405.106506 216.349777,403.845276 
	C216.291824,400.695251 215.646606,397.341125 216.498199,394.439026 
	C217.811798,389.962463 221.583557,392.569916 224.795197,392.857239 
z"/>
<path fill="#EE3234" opacity="1.000000" stroke="none" 
	d="
M218.711761,120.856956 
	C218.974777,121.447021 218.982697,121.679054 219.066620,122.049423 
	C220.976028,128.703262 216.332565,132.438889 212.512787,136.636139 
	C210.939072,136.682999 209.761673,136.788223 208.219742,136.900970 
	C207.990494,134.109634 210.191589,132.268539 211.252716,129.508636 
	C211.174515,128.446091 211.371689,127.832359 212.246735,127.241379 
	C214.974945,125.336662 214.264557,120.797066 218.711761,120.856956 
z"/>
<path fill="#D9DDE1" opacity="1.000000" stroke="none" 
	d="
M257.935059,397.702759 
	C256.101074,400.584869 254.640015,403.313660 252.557755,407.202606 
	C249.843140,401.845612 247.579330,397.378174 245.315506,392.910767 
	C245.700775,392.690643 246.086060,392.470520 246.471329,392.250366 
	C248.619461,393.745483 248.925903,396.517120 250.540543,398.782654 
	C251.122208,399.127930 251.450714,399.223297 252.047424,399.265442 
	C252.644547,399.088867 252.893723,398.840485 253.235046,398.278137 
	C254.041748,396.981750 254.867157,396.091248 256.148834,395.248169 
	C257.441864,394.403534 257.069794,392.129211 259.430328,392.808289 
	C261.306274,395.097870 259.811462,396.324921 257.935059,397.702759 
z"/>
<path fill="#E4E4E4" opacity="1.000000" stroke="none" 
	d="
M310.067688,404.805969 
	C309.023834,405.636719 308.040833,406.576294 307.904327,404.672394 
	C307.715851,402.044312 307.811554,399.395844 307.713531,396.313843 
	C307.242371,395.784943 306.843201,395.698273 307.042694,395.481232 
	C308.506714,389.550110 312.453888,392.833954 315.609070,392.928558 
	C316.089600,393.575836 316.026825,394.025940 315.468567,394.679626 
	C314.415405,395.641205 312.643097,395.715790 312.780792,396.876495 
	C312.987366,398.618256 315.007202,398.180115 316.512024,398.936462 
	C317.004852,399.249207 317.182251,399.404785 317.499573,399.885437 
	C316.955200,400.748352 316.270874,401.286133 315.293274,401.976685 
	C313.799622,403.616211 311.558044,403.153076 310.067688,404.805969 
z"/>
<path fill="#CED3D8" opacity="1.000000" stroke="none" 
	d="
M195.252197,393.338623 
	C198.924423,391.489960 203.157715,390.948181 205.252563,395.027069 
	C208.079086,400.530640 206.815582,404.014984 202.331116,405.936859 
	C201.823257,405.696930 201.681534,405.515839 201.458710,404.999329 
	C202.067963,400.140076 197.474258,402.433807 195.895691,400.293945 
	C195.564789,399.569275 195.511185,399.115692 195.610794,398.319519 
	C196.470566,396.639282 198.041519,396.614197 199.541122,396.055084 
	C198.448349,395.518829 197.600601,395.461578 196.541977,394.948151 
	C195.896469,394.449615 195.626480,394.072479 195.252197,393.338623 
z"/>
<path fill="#CED3D8" opacity="1.000000" stroke="none" 
	d="
M279.455811,392.897766 
	C279.387939,394.567841 279.326904,395.896240 279.348724,397.223236 
	C279.477661,405.071228 278.127441,404.208588 286.991302,404.273865 
	C288.204590,404.072174 288.538696,404.384735 288.174561,405.573517 
	C275.022339,406.104950 277.719421,407.983948 277.368866,395.733582 
	C277.336517,394.603790 277.196198,393.413391 278.543701,392.400513 
	C279.085815,392.356171 279.293335,392.455780 279.455811,392.897766 
z"/>
<path fill="#F4F5F6" opacity="1.000000" stroke="none" 
	d="
M273.093384,399.661621 
	C271.138702,399.921265 269.331573,399.962494 267.524689,400.014130 
	C266.091278,400.055115 264.490753,399.666443 264.465149,402.050171 
	C264.438599,404.523651 265.967957,404.453918 267.721039,404.562653 
	C269.422089,404.668152 271.327271,403.832977 272.869965,405.396393 
	C263.448120,407.360779 262.909241,406.997162 262.759918,398.282043 
	C260.024506,396.610657 261.909393,395.154938 262.687592,393.365051 
	C266.163452,391.724731 269.431702,392.158173 272.778259,393.925720 
	C270.993317,393.925720 269.208282,393.936035 267.423462,393.922577 
	C265.895050,393.911041 264.441376,393.807159 264.461334,396.089539 
	C264.479034,398.119781 265.509338,398.582550 267.258759,398.542023 
	C268.896179,398.504120 270.537384,398.629730 272.591980,398.833496 
	C273.085022,399.138306 273.163025,399.293030 273.093384,399.661621 
z"/>
<path fill="#F4F5F6" opacity="1.000000" stroke="none" 
	d="
M181.439178,392.401123 
	C184.481140,392.433594 187.124420,391.831116 190.220673,392.891235 
	C188.281158,394.592957 186.305710,393.678253 184.594666,393.901154 
	C183.179214,394.085571 181.532608,393.561523 181.501404,395.964508 
	C181.469696,398.406281 182.955124,398.488892 184.752228,398.551605 
	C186.350204,398.607391 188.062210,398.052673 189.764160,399.333496 
	C187.870544,400.531555 185.915375,399.859802 184.095261,399.986908 
	C182.704666,400.084015 181.469681,400.000641 181.469330,401.998535 
	C181.468979,403.986115 182.404114,404.538391 184.219177,404.551819 
	C186.100449,404.565765 188.097839,404.134918 190.179962,405.201569 
	C189.513397,405.615479 189.248047,405.913452 188.956329,405.942047 
	C179.722534,406.846008 176.879593,402.035034 181.439178,392.401123 
z"/>
<path fill="#F0F1F3" opacity="1.000000" stroke="none" 
	d="
M242.352295,406.175354 
	C240.689102,406.129730 239.342010,405.868225 238.070862,406.074554 
	C233.318390,406.845917 231.810410,405.046967 232.089371,400.213989 
	C232.604279,391.294159 230.792084,392.294006 241.404602,392.327301 
	C242.299728,392.555328 242.484299,392.900055 242.168640,393.618408 
	C240.091736,393.877777 238.258682,394.024261 236.441788,393.911194 
	C234.401077,393.784210 233.979767,394.724152 233.946503,396.563629 
	C233.908905,398.643005 234.842972,399.035004 236.646744,399.019440 
	C238.253769,399.005524 239.954544,398.527557 241.557327,399.498474 
	C239.957596,400.475525 238.258224,399.987762 236.652100,399.981476 
	C234.875458,399.974548 233.902969,400.305237 233.942535,402.414337 
	C233.977997,404.305023 234.496323,405.180420 236.490433,404.980347 
	C238.300827,404.798706 240.126556,404.769989 242.321381,404.612427 
	C243.580994,405.088776 243.268188,405.631042 242.352295,406.175354 
z"/>
<path fill="#D9DDE1" opacity="1.000000" stroke="none" 
	d="
M303.548096,395.807892 
	C304.432220,402.196136 303.187958,404.356445 297.292725,406.330750 
	C294.743042,408.746979 293.344788,406.863770 291.748840,405.033051 
	C291.638336,404.084808 291.853149,403.619598 292.650391,403.100983 
	C295.596558,404.664124 298.319031,405.421722 300.591339,402.747833 
	C302.666016,400.306488 302.627899,397.594452 300.233551,395.188995 
	C299.650269,394.602997 298.812103,393.982483 300.010925,393.362091 
	C300.375641,393.173309 301.143860,393.764343 301.971863,394.158203 
	C303.143280,394.139465 303.479767,394.702759 303.548096,395.807892 
z"/>
<path fill="#F4F5F6" opacity="1.000000" stroke="none" 
	d="
M332.160004,405.318176 
	C322.664490,406.950897 320.076996,403.950073 322.600525,394.300476 
	C322.964996,392.906860 323.660065,392.318512 324.971954,392.306549 
	C327.523773,392.283295 330.075928,392.299774 332.627960,392.299774 
	C332.647339,392.841766 332.666687,393.383789 332.686066,393.925781 
	C330.897156,393.925781 329.107758,393.950806 327.319427,393.918640 
	C325.573730,393.887268 324.103577,393.824158 324.091949,396.393158 
	C324.080933,398.830414 325.289612,399.022461 327.172302,399.025818 
	C328.609222,399.028351 330.141388,398.536621 331.565918,399.478638 
	C329.982971,400.476471 328.281799,399.983948 326.681885,399.970520 
	C324.748779,399.954315 324.129395,400.672363 324.107330,402.596161 
	C324.082764,404.744385 325.158386,405.050812 326.881195,404.990479 
	C328.536682,404.932495 330.197235,405.019836 332.160004,405.318176 
z"/>
<path fill="#E4E4E4" opacity="1.000000" stroke="none" 
	d="
M292.914764,402.649628 
	C292.884216,403.249481 292.692139,403.507721 292.239441,403.856018 
	C291.275391,404.415222 290.842285,403.986237 290.587463,403.081024 
	C289.809052,400.268311 289.466980,397.783173 291.076660,395.019409 
	C291.606598,392.197937 293.078888,391.718109 295.601440,392.809265 
	C295.045593,393.867981 294.126801,394.638306 293.123840,395.709015 
	C293.391266,397.213989 293.408905,398.374451 292.373657,399.711975 
	C292.376221,400.783478 292.593323,401.566986 292.914764,402.649628 
z"/>
<path fill="#2B4257" opacity="1.000000" stroke="none" 
	d="
M290.284058,402.935120 
	C291.013397,403.103668 291.324921,403.435760 291.836182,403.878235 
	C292.986084,405.682556 294.642151,406.010071 296.660950,406.316895 
	C296.838348,408.780823 295.622345,409.159332 293.634460,408.296722 
	C291.974060,407.576263 290.276947,406.940430 288.262451,406.117065 
	C287.848480,405.575378 287.768188,405.183655 287.553406,404.516602 
	C288.234711,403.860382 289.050446,403.479553 290.284058,402.935120 
z"/>
<path fill="#F7F8F9" opacity="1.000000" stroke="none" 
	d="
M201.737976,404.405762 
	C201.959305,404.866638 201.955734,405.068939 201.958572,405.574646 
	C194.608612,406.207458 194.603775,406.207458 194.616379,398.826691 
	C194.619186,397.182343 194.669159,395.538055 194.887039,393.463379 
	C195.352448,393.274597 195.628235,393.516174 196.039307,394.000427 
	C197.022141,395.093781 197.089706,396.079437 196.425430,397.451843 
	C196.148972,398.299835 196.124329,398.844147 196.120819,399.796509 
	C197.555283,402.032440 199.449615,403.205048 201.737976,404.405762 
z"/>
<path fill="#CED3D8" opacity="1.000000" stroke="none" 
	d="
M317.878662,399.985077 
	C317.334656,400.156342 317.029724,400.102112 316.266052,399.974548 
	C314.628510,398.359497 314.468506,396.575165 314.699127,394.410431 
	C315.106110,393.902954 315.389465,393.712280 315.813660,393.306854 
	C318.974823,394.568573 319.585052,396.827057 317.878662,399.985077 
z"/>
<path fill="#2B4257" opacity="1.000000" stroke="none" 
	d="
M262.624542,393.091003 
	C262.867188,394.377594 262.854340,395.782227 262.759857,397.525482 
	C261.313629,397.885010 259.949066,397.905914 258.073303,397.891479 
	C258.178528,396.427399 258.794891,394.998657 259.529205,393.261017 
	C260.538910,393.202576 261.405060,393.724152 262.624542,393.091003 
z"/>
<path fill="#2B4257" opacity="1.000000" stroke="none" 
	d="
M280.215881,373.789551 
	C282.240479,373.521729 283.073212,372.065613 284.091553,370.346344 
	C284.880524,372.072510 285.964905,374.246765 283.581421,375.623505 
	C282.282898,376.373535 280.740265,376.103882 280.215881,373.789551 
z"/>
<path fill="#2B4257" opacity="1.000000" stroke="none" 
	d="
M295.999573,367.663818 
	C299.399689,367.716705 298.516083,371.821045 301.207489,373.279236 
	C301.458923,373.494629 301.206573,373.774170 301.077362,373.911133 
	C300.552155,374.371857 300.100220,374.503052 299.296204,374.220917 
	C296.749054,372.635986 296.058533,370.489319 295.999573,367.663818 
z"/>
<path fill="#2B4257" opacity="1.000000" stroke="none" 
	d="
M295.950378,392.705780 
	C294.266907,392.315491 293.012970,393.125916 291.526428,394.462982 
	C291.238708,392.988434 290.276855,390.855469 292.850891,390.193420 
	C294.516815,389.764893 295.779633,390.339508 295.950378,392.705780 
z"/>
<path fill="#2B4257" opacity="1.000000" stroke="none" 
	d="
M242.095154,406.490021 
	C242.483459,405.962036 242.961029,405.744324 242.747467,404.808838 
	C243.457779,403.376801 244.389084,403.022186 245.362747,404.225952 
	C246.026031,405.045929 246.008286,406.079193 245.295013,406.872559 
	C244.296387,407.983337 243.188705,408.358765 242.095154,406.490021 
z"/>
<path fill="#2B4257" opacity="1.000000" stroke="none" 
	d="
M172.370270,363.287476 
	C171.209930,365.410645 172.154572,367.459900 172.418549,369.775757 
	C169.961609,369.082733 169.884384,366.826630 168.765045,364.881775 
	C169.484283,363.441162 170.577225,363.040649 172.370270,363.287476 
z"/>
<path fill="#2B4257" opacity="1.000000" stroke="none" 
	d="
M304.317627,370.139648 
	C303.348236,368.883972 302.688324,367.769196 302.005554,366.327332 
	C303.221893,364.668182 305.014374,365.162292 306.865875,364.792419 
	C307.544800,365.725159 307.854553,366.498169 308.214966,367.585449 
	C308.054840,367.917908 307.844025,367.936096 307.316589,367.977173 
	C306.121216,368.668793 305.931366,370.054382 304.317627,370.139648 
z"/>
<path fill="#2B4257" opacity="1.000000" stroke="none" 
	d="
M287.205444,352.923889 
	C286.642548,355.111176 285.708099,357.048981 284.499451,359.218384 
	C283.792389,359.291840 283.443024,359.022308 283.083038,358.328064 
	C282.845520,355.952881 283.714966,354.432892 285.701141,353.166992 
	C286.277954,352.891449 286.555908,352.782928 287.205444,352.923889 
z"/>
<path fill="#2B4257" opacity="1.000000" stroke="none" 
	d="
M310.125305,370.899384 
	C311.562958,371.275116 312.968597,372.072723 314.686737,373.020599 
	C314.569092,374.842133 313.349701,375.124847 311.897705,374.856628 
	C309.802826,374.469727 310.092743,372.808807 310.125305,370.899384 
z"/>
<path fill="#2B4257" opacity="1.000000" stroke="none" 
	d="
M310.178528,404.996277 
	C308.954620,400.638458 312.349426,402.517273 314.573547,402.085541 
	C314.625946,404.792358 312.692017,405.042511 310.178528,404.996277 
z"/>
<path fill="#2B4257" opacity="1.000000" stroke="none" 
	d="
M165.240540,368.947815 
	C166.102264,369.804749 166.643890,370.802460 167.263535,372.074219 
	C166.225357,374.224884 165.263824,373.208252 164.271744,372.201935 
	C162.911469,370.822083 163.572449,369.890167 165.240540,368.947815 
z"/>
<path fill="#2B4257" opacity="1.000000" stroke="none" 
	d="
M257.063995,371.055176 
	C257.815491,371.576752 258.210938,372.149384 258.802307,372.897064 
	C258.614899,374.696045 257.607574,375.398590 256.229828,374.323059 
	C254.799500,373.206360 254.654968,371.897430 257.063995,371.055176 
z"/>
<path fill="#2B4257" opacity="1.000000" stroke="none" 
	d="
M214.989288,371.917328 
	C215.340927,371.116547 215.841217,370.618591 216.595734,370.035950 
	C218.615768,370.226654 219.045959,371.195770 218.067307,372.629974 
	C216.906036,374.331757 215.971481,373.401062 214.989288,371.917328 
z"/>
<path fill="#2B4257" opacity="1.000000" stroke="none" 
	d="
M220.325562,358.889221 
	C219.578003,357.931854 219.203751,356.862946 218.772339,355.456665 
	C219.669052,354.682800 220.622925,354.246246 221.949036,353.651031 
	C222.321259,353.492340 222.354080,353.566681 222.396790,353.571533 
	C221.604340,355.224823 222.778244,357.545624 220.325562,358.889221 
z"/>
<path fill="#2B4257" opacity="1.000000" stroke="none" 
	d="
M157.696838,399.009155 
	C156.861984,398.065613 156.348160,396.909088 155.771942,395.439148 
	C156.716949,394.859558 157.884872,393.736725 158.663300,395.232483 
	C159.291336,396.439270 159.060135,397.756836 157.696838,399.009155 
z"/>
<path fill="#2B4257" opacity="1.000000" stroke="none" 
	d="
M211.952194,348.813904 
	C210.926605,349.076263 209.852951,348.986450 208.388062,348.794373 
	C208.089859,347.547638 208.090942,346.234619 209.683609,346.252045 
	C211.004929,346.266449 211.629822,347.253174 211.952194,348.813904 
z"/>
<path fill="#2B4257" opacity="1.000000" stroke="none" 
	d="
M174.778397,371.741516 
	C175.677155,372.122101 176.181839,372.308472 176.844238,372.718628 
	C175.498215,376.975372 173.770035,373.573181 171.786667,372.931213 
	C171.443375,372.772919 171.553894,372.309814 171.734604,372.154846 
	C172.653458,371.386108 173.482224,371.266663 174.778397,371.741516 
z"/>
<path fill="#2B4257" opacity="1.000000" stroke="none" 
	d="
M292.487183,399.936401 
	C291.807892,398.774384 291.931793,397.586090 292.739563,396.218658 
	C296.450043,397.499756 294.880096,398.700684 292.487183,399.936401 
z"/>
<path fill="#2B4257" opacity="1.000000" stroke="none" 
	d="
M256.073090,395.146820 
	C255.927078,396.313293 255.411942,397.480652 254.708954,398.905060 
	C254.090897,399.336334 253.652573,399.486969 252.603058,399.307007 
	C252.322952,396.839294 253.486206,395.486572 256.073090,395.146820 
z"/>
<path fill="#2B4257" opacity="1.000000" stroke="none" 
	d="
M230.376541,370.020172 
	C230.854477,370.611572 230.994843,371.225372 231.214966,372.144287 
	C230.517014,373.647461 229.498169,374.048370 228.629944,372.727783 
	C227.650650,371.238251 228.348846,370.301056 230.376541,370.020172 
z"/>
<path fill="#2B4257" opacity="1.000000" stroke="none" 
	d="
M234.235291,356.843323 
	C232.567169,358.915314 232.567169,358.915314 229.525848,354.526611 
	C231.399063,353.944611 233.164719,354.253326 234.235291,356.843323 
z"/>
<path fill="#2B4257" opacity="1.000000" stroke="none" 
	d="
M307.261108,364.699707 
	C305.742920,365.300385 304.250793,365.648590 302.370667,365.998535 
	C301.652710,365.530304 301.322693,365.060303 300.979980,364.295166 
	C302.704590,364.000000 304.441925,364.000000 306.613525,363.999847 
	C307.127594,364.148895 307.207367,364.298065 307.261108,364.699707 
z"/>
<path fill="#2B4257" opacity="1.000000" stroke="none" 
	d="
M153.369553,355.886230 
	C153.126038,357.054199 152.711075,357.925964 152.096100,359.008484 
	C149.987961,358.141632 149.321304,356.876190 151.644897,355.106018 
	C152.462219,355.069061 152.858475,355.272064 153.369553,355.886230 
z"/>
<path fill="#2B4257" opacity="1.000000" stroke="none" 
	d="
M186.610199,372.736084 
	C187.437729,371.437836 188.691650,370.226440 190.137009,368.755798 
	C190.328430,368.496521 190.679718,368.750549 190.849457,368.885376 
	C191.387299,369.407227 191.528122,369.864288 191.220825,370.695679 
	C190.435043,373.251678 188.711090,372.983551 186.610199,372.736084 
z"/>
<path fill="#2B4257" opacity="1.000000" stroke="none" 
	d="
M277.733704,356.904022 
	C277.200897,356.210144 277.032074,355.494568 276.875244,354.501648 
	C277.898438,353.025757 278.878662,353.202576 279.510254,354.500671 
	C280.155945,355.827789 279.482513,356.627686 277.733704,356.904022 
z"/>
<path fill="#2B4257" opacity="1.000000" stroke="none" 
	d="
M196.590149,368.475616 
	C197.744965,369.046417 198.630707,369.960663 199.717636,371.123108 
	C198.064240,371.444366 194.518906,373.900665 196.590149,368.475616 
z"/>
<path fill="#2B4257" opacity="1.000000" stroke="none" 
	d="
M304.006927,370.331665 
	C304.802856,369.369141 305.597626,368.739502 306.696167,368.054932 
	C306.822479,368.846222 306.644958,369.692444 306.233704,370.769348 
	C305.649017,371.447296 305.373962,371.973724 304.509277,372.072327 
	C304.160156,371.538635 304.082947,371.101593 304.006927,370.331665 
z"/>
<path fill="#2B4257" opacity="1.000000" stroke="none" 
	d="
M324.245789,365.202820 
	C324.225098,366.704956 323.254150,367.731628 321.581299,368.567688 
	C321.003021,366.719818 321.209229,365.073975 324.245789,365.202820 
z"/>
<path fill="#2B4257" opacity="1.000000" stroke="none" 
	d="
M303.963196,396.111877 
	C303.098450,395.712616 302.758636,395.274567 302.317596,394.577332 
	C303.815521,393.964539 305.343048,394.139557 307.213837,395.143860 
	C307.641327,395.350830 307.757294,395.611206 307.699402,395.741394 
	C306.590393,395.938751 305.539246,396.005890 303.963196,396.111877 
z"/>
<path fill="#2B4257" opacity="1.000000" stroke="none" 
	d="
M155.667297,351.016174 
	C155.669525,351.911591 155.307739,352.823151 154.751373,353.961487 
	C154.277130,354.323700 153.997498,354.459229 153.358917,354.297394 
	C152.986740,352.404633 153.331009,351.086761 155.667297,351.016174 
z"/>
<path fill="#2B4257" opacity="1.000000" stroke="none" 
	d="
M287.768799,352.946106 
	C287.314392,353.142700 287.051758,353.111969 286.394562,353.040588 
	C285.982056,351.371887 286.373169,350.068542 288.726440,350.015015 
	C288.716949,350.906128 288.338745,351.812469 287.768799,352.946106 
z"/>
<path fill="#2B4257" opacity="1.000000" stroke="none" 
	d="
M369.185822,267.934387 
	C368.720367,267.299438 368.598511,266.591827 368.431366,265.525879 
	C370.578094,265.297028 371.781433,265.846130 369.185822,267.934387 
z"/>
<path fill="#2B4257" opacity="1.000000" stroke="none" 
	d="
M273.129028,400.078003 
	C272.945740,399.875549 272.963409,399.428680 272.985229,399.206116 
	C273.726410,398.298889 274.499939,398.145569 274.725403,399.288300 
	C274.910339,400.225464 274.397156,400.818817 273.129028,400.078003 
z"/>
<path fill="#2B4257" opacity="1.000000" stroke="none" 
	d="
M304.051208,372.258575 
	C304.671539,371.719116 305.105682,371.462555 305.769897,371.102997 
	C306.017151,372.966522 305.220520,374.099396 302.657928,373.792358 
	C302.780640,373.334991 303.322876,372.938232 304.051208,372.258575 
z"/>
<path fill="#2B4257" opacity="1.000000" stroke="none" 
	d="
M286.847900,122.209106 
	C286.120728,121.690231 285.424744,120.743652 284.578918,119.469261 
	C286.191711,119.143539 286.975800,120.053749 286.847900,122.209106 
z"/>
<path fill="#2B4257" opacity="1.000000" stroke="none" 
	d="
M362.769287,278.842834 
	C362.694794,278.305573 362.951294,277.769745 363.427795,277.034851 
	C364.875336,277.889648 364.677490,278.554993 362.769287,278.842834 
z"/>
<path fill="#2B4257" opacity="1.000000" stroke="none" 
	d="
M290.906616,348.494110 
	C290.621063,348.993073 290.242126,349.214996 289.576599,349.601471 
	C289.510437,348.967163 288.318634,346.779510 290.906616,348.494110 
z"/>
<path fill="#2D4257" opacity="1.000000" stroke="none" 
	d="
M334.898193,319.302612 
	C335.650604,319.735992 336.338165,320.521423 337.185242,321.590576 
	C337.147736,321.895081 336.950806,321.915833 336.457275,321.951050 
	C334.977448,321.620728 335.185638,320.476715 334.898193,319.302612 
z"/>
<path fill="#2B4257" opacity="1.000000" stroke="none" 
	d="
M212.248550,127.161865 
	C212.323395,127.699409 212.064987,128.233902 211.590424,128.971558 
	C210.134201,128.121521 210.313263,127.449219 212.248550,127.161865 
z"/>
<path fill="#2B4257" opacity="1.000000" stroke="none" 
	d="
M347.757263,304.839844 
	C347.682587,304.302063 347.940338,303.766754 348.416626,303.030579 
	C349.871002,303.884827 349.680634,304.553406 347.757263,304.839844 
z"/>
<path fill="#2B4257" opacity="1.000000" stroke="none" 
	d="
M148.119568,295.026611 
	C148.695877,295.311890 149.026321,295.797516 149.465714,296.560791 
	C148.628738,296.701233 147.114670,297.163757 148.119568,295.026611 
z"/>
<path fill="#2B4257" opacity="1.000000" stroke="none" 
	d="
M191.274033,370.946899 
	C191.002197,370.559845 191.004379,370.119720 191.012878,369.349884 
	C191.627609,369.126648 192.347412,369.212219 192.371185,369.968628 
	C192.380585,370.268097 191.838852,370.584869 191.274033,370.946899 
z"/>
<path fill="#2B4257" opacity="1.000000" stroke="none" 
	d="
M299.052368,374.272827 
	C299.433380,374.005890 299.866791,374.011749 300.624146,374.032898 
	C300.859589,374.657806 300.773010,375.366089 300.014465,375.376282 
	C299.714966,375.380310 299.408203,374.838776 299.052368,374.272827 
z"/>
<path fill="#2B4257" opacity="1.000000" stroke="none" 
	d="
M279.660828,393.100647 
	C279.194489,393.085815 279.037781,392.885010 278.909424,392.447144 
	C279.263947,391.792664 279.669434,391.201782 280.290527,391.839813 
	C280.415802,391.968475 280.050232,392.574982 279.660828,393.100647 
z"/>
<path fill="#2B4257" opacity="1.000000" stroke="none" 
	d="
M174.374817,392.207977 
	C174.433487,392.731964 174.144577,393.234314 173.680389,393.967773 
	C172.162476,393.134552 172.320816,392.459595 174.374817,392.207977 
z"/>
<path fill="#2B4257" opacity="1.000000" stroke="none" 
	d="
M133.115204,269.028992 
	C133.691101,269.313782 134.021912,269.799011 134.461838,270.561890 
	C133.626297,270.701843 132.115189,271.162445 133.115204,269.028992 
z"/>
<path fill="#2B4257" opacity="1.000000" stroke="none" 
	d="
M363.872467,255.976074 
	C363.296234,255.690369 362.966644,255.204880 362.530212,254.441116 
	C363.369965,254.299866 364.885193,253.839294 363.872467,255.976074 
z"/>
<path fill="#2B4257" opacity="1.000000" stroke="none" 
	d="
M153.236862,229.159271 
	C153.314468,229.697037 153.060043,230.233047 152.588165,230.970490 
	C151.136993,230.126144 151.308807,229.453018 153.236862,229.159271 
z"/>
<path fill="#2B4257" opacity="1.000000" stroke="none" 
	d="
M152.796417,354.126892 
	C153.259750,354.029022 153.519485,354.058014 154.167999,354.137634 
	C154.345490,354.713135 154.134232,355.238068 153.731995,355.972717 
	C153.169037,355.955261 152.797089,355.728058 152.212555,355.250427 
	C152.140610,354.705933 152.338211,354.457184 152.796417,354.126892 
z"/>
<path fill="#2B4257" opacity="1.000000" stroke="none" 
	d="
M347.831268,222.998901 
	C347.258545,222.705002 346.939667,222.213470 346.516968,221.444000 
	C347.370178,221.302475 348.906555,220.846497 347.831268,222.998901 
z"/>
<path fill="#2B4257" opacity="1.000000" stroke="none" 
	d="
M282.810913,358.183838 
	C283.303589,358.297211 283.607178,358.594391 284.067993,359.170837 
	C284.225250,359.450043 284.222534,359.791779 284.086639,359.895386 
	C283.098114,359.788940 282.084900,359.709747 282.810913,358.183838 
z"/>
<path fill="#2B4257" opacity="1.000000" stroke="none" 
	d="
M161.254944,210.164001 
	C161.331406,210.702332 161.073914,211.237030 160.600479,211.975128 
	C159.139847,211.127426 159.309433,210.452255 161.254944,210.164001 
z"/>
<path fill="#ACB4BC" opacity="1.000000" stroke="none" 
	d="
M242.222031,393.858032 
	C241.897278,393.516663 241.848938,393.191650 241.799652,392.625305 
	C243.057648,392.408173 243.087433,393.000519 242.222031,393.858032 
z"/>
<path fill="#2B4257" opacity="1.000000" stroke="none" 
	d="
M251.957642,400.443481 
	C251.401703,400.466064 251.176956,400.071198 250.877472,399.338928 
	C251.002274,399.001160 251.201828,399.000732 251.700684,399.000122 
	C252.096298,399.341980 252.192535,399.683990 251.957642,400.443481 
z"/>
<path fill="#2B4257" opacity="1.000000" stroke="none" 
	d="
M170.111206,401.115356 
	C170.116013,401.565857 169.981384,402.588837 169.064270,401.331299 
	C169.250443,401.023438 169.496689,401.046875 170.111206,401.115356 
z"/>
<path fill="#EC3334" opacity="1.000000" stroke="none" 
	d="
M293.276367,136.765152 
	C293.161224,136.527527 293.286224,136.378693 293.552399,136.162842 
	C293.669861,136.075928 293.881317,136.439529 293.914062,136.646606 
	C293.946808,136.853668 293.492859,136.834030 293.276367,136.765152 
z"/>
<path fill="#2D4257" opacity="1.000000" stroke="none" 
	d="
M364.497864,264.914490 
	C365.731537,267.223053 363.897644,268.475311 363.059814,269.945862 
	C353.844849,286.120026 344.542603,302.244476 335.142151,318.712677 
	C322.374054,319.075348 309.727753,319.092407 297.081726,319.158936 
	C295.446594,319.167542 294.043915,318.681671 293.162903,317.384613 
	C290.333588,313.219055 286.225616,313.049835 281.727814,313.077087 
	C260.235107,313.207458 238.741180,313.137268 217.247681,313.133240 
	C214.925827,313.132812 212.466400,312.761902 210.855484,315.014191 
	C208.103409,318.862000 204.272964,319.298767 199.881149,319.213989 
	C189.223587,319.008118 178.558243,319.206177 167.449677,319.392578 
	C157.645172,303.225739 148.278137,286.912933 138.943420,270.581665 
	C138.061264,269.038391 136.692001,267.694916 136.796494,265.351318 
	C143.052628,256.198120 147.966721,246.674118 153.197250,237.353317 
	C155.313156,233.582748 157.773346,231.051880 162.582336,230.762573 
	C163.020309,232.925659 163.067856,235.143860 163.135513,237.834244 
	C163.106049,243.951248 159.171860,247.907211 156.916931,252.589981 
	C156.205872,254.066635 155.150757,255.384094 154.514786,256.893127 
	C153.852814,258.463806 151.567230,260.181152 153.032074,261.624573 
	C154.517365,263.088165 157.116470,262.346252 159.167770,261.687714 
	C160.564621,261.239288 161.499603,259.858826 163.349854,259.506683 
	C165.186890,264.933563 169.469162,265.922607 174.212051,265.937775 
	C190.028030,265.988312 205.847260,266.129242 221.658554,265.853210 
	C226.336426,265.771515 227.123138,267.596954 227.146469,271.708496 
	C227.170074,275.865479 225.858307,277.318573 221.708450,277.099457 
	C219.262909,276.970337 215.507767,275.549438 214.502823,278.464447 
	C213.179703,282.302399 213.572433,286.699860 214.439255,290.779816 
	C214.764526,292.310883 216.629547,291.988647 217.919693,291.989716 
	C239.895767,292.007935 261.871948,291.971893 283.847839,292.041290 
	C286.741577,292.050446 288.322174,291.207977 288.013123,288.072876 
	C287.931885,287.248596 288.003815,286.409241 288.005524,285.576813 
	C288.022705,277.242157 288.018524,276.969055 279.511993,277.099762 
	C274.881805,277.170898 274.968811,274.682770 274.930664,271.433716 
	C274.891113,268.062103 275.118225,265.801300 279.618256,265.867554 
	C295.597412,266.102844 311.582184,265.971161 327.564758,265.948334 
	C331.894226,265.942139 335.916626,265.227875 338.024292,260.308838 
	C341.660797,260.934723 344.946930,263.428040 349.422089,261.732849 
	C346.730988,253.798401 340.023224,247.732880 338.402344,238.940521 
	C338.234528,236.212097 338.177002,233.814529 338.175171,230.893478 
	C343.795471,230.785950 346.798523,234.122009 349.309784,238.886078 
	C353.946716,247.682877 359.204834,256.152222 364.497864,264.914490 
z"/>
<path fill="#EFEFEF" opacity="1.000000" stroke="none" 
	d="
M327.257385,212.999878 
	C327.257294,193.168671 327.276245,173.837448 327.247528,154.506302 
	C327.236420,147.031403 325.230621,145.053986 317.781067,145.036331 
	C308.448792,145.014221 299.113708,144.900879 289.785645,145.099442 
	C286.382660,145.171875 283.649231,144.483994 281.650421,141.532379 
	C282.155182,140.245605 283.328369,140.828613 284.159454,140.826126 
	C298.991028,140.781799 313.824280,140.913483 328.653534,140.722992 
	C333.263367,140.663773 334.827606,142.505066 334.817810,146.926056 
	C334.737518,183.088531 334.732544,219.251389 334.822479,255.413818 
	C334.834045,260.070709 333.136658,261.946594 328.346008,261.937286 
	C276.685242,261.836731 225.024200,261.845612 173.363373,261.925720 
	C168.911621,261.932617 167.047943,260.314728 167.058502,255.775146 
	C167.143036,219.446030 167.124298,183.116608 167.077454,146.787354 
	C167.072662,143.078583 167.957779,140.723389 172.338791,140.754532 
	C187.836273,140.864761 203.334961,140.799530 218.833176,140.820328 
	C219.266388,140.820923 219.699310,141.041763 220.323517,141.212067 
	C218.489471,144.089996 216.179810,145.164810 212.851715,145.099701 
	C203.023224,144.907455 193.188400,144.996384 183.356384,145.043427 
	C176.812378,145.074753 174.578918,147.199768 174.569122,153.705292 
	C174.521454,185.368378 174.521851,217.031616 174.570312,248.694702 
	C174.580444,255.309570 176.648453,257.403748 183.284622,257.410675 
	C228.279587,257.457703 273.274658,257.455109 318.269623,257.415009 
	C325.283203,257.408752 327.216675,255.414612 327.243896,248.495483 
	C327.289825,236.830444 327.257050,225.165100 327.257385,212.999878 
z"/>
<path fill="#2B4257" opacity="1.000000" stroke="none" 
	d="
M212.615295,136.686569 
	C214.465973,132.018463 216.815475,127.459152 219.128967,122.542877 
	C223.501129,121.149536 227.975128,121.770988 232.412537,121.742493 
	C247.495361,121.645638 262.579926,121.781845 277.661987,121.638412 
	C280.517273,121.611267 282.132141,122.455009 283.415588,125.032295 
	C285.330048,128.876678 287.695435,132.496475 290.002899,136.516388 
	C286.797516,136.860458 283.458221,136.899979 279.672180,136.932770 
	C278.317719,136.442184 277.656738,135.246689 276.018616,135.998566 
	C270.444244,135.861069 266.062469,132.735580 260.946533,131.838272 
	C250.843628,130.066238 241.153259,130.903564 231.665543,134.710968 
	C229.302490,135.659241 226.810104,137.569595 224.718582,134.187134 
	C224.237747,133.409500 223.480011,133.660797 223.098282,134.238281 
	C220.525864,138.129745 216.659744,136.809357 212.615295,136.686569 
z"/>
<path fill="#809ED3" opacity="1.000000" stroke="none" 
	d="
M249.001404,265.420593 
	C255.315521,265.420990 261.136627,265.586609 266.942139,265.357391 
	C270.270020,265.225983 271.450775,266.422516 271.041077,269.640686 
	C270.853729,271.112213 270.917511,272.633453 271.026031,274.120605 
	C271.179901,276.228943 270.401154,277.056366 268.199310,277.041260 
	C256.736816,276.962677 245.273224,276.963135 233.810745,277.041168 
	C231.619217,277.056122 231.080002,276.224213 230.938385,274.136078 
	C230.346863,265.415131 230.268707,265.420349 239.032410,265.420074 
	C242.188889,265.419983 245.345383,265.420227 249.001404,265.420593 
z"/>
<path fill="#438CC9" opacity="1.000000" stroke="none" 
	d="
M229.464493,170.563309 
	C231.171173,158.168381 230.006256,160.139145 240.791870,158.561508 
	C242.271454,158.345078 243.765442,158.228180 245.246704,158.021744 
	C247.942245,157.646103 249.205948,158.527100 249.062012,161.510757 
	C248.853729,165.828094 248.847702,170.170975 249.063385,174.487564 
	C249.213943,177.500687 247.885071,178.172256 245.225296,178.030884 
	C242.071930,177.863297 238.902771,177.993271 235.740463,177.992584 
	C228.742447,177.991074 228.742447,177.990631 229.464493,170.563309 
z"/>
<path fill="#438CC9" opacity="1.000000" stroke="none" 
	d="
M272.829956,175.010223 
	C272.989532,177.880600 271.393707,178.013046 269.586365,177.999344 
	C265.106720,177.965363 260.624725,177.909882 256.147491,178.019424 
	C253.877319,178.074951 252.816772,177.377197 252.881332,174.934021 
	C253.003983,170.291443 253.009125,165.640717 252.879730,160.998505 
	C252.809692,158.486603 253.975540,157.770401 256.200470,158.019272 
	C256.529297,158.056076 256.863098,158.049850 257.194672,158.060028 
	C270.868103,158.479935 270.868103,158.479889 272.829956,175.010223 
z"/>
<path fill="#438CC9" opacity="1.000000" stroke="none" 
	d="
M272.804077,185.895477 
	C272.736694,186.665329 272.696686,186.995285 272.650482,187.324341 
	C270.718536,201.090866 270.564941,201.154053 256.380768,201.697021 
	C253.747360,201.797821 252.998093,201.079575 252.849609,198.463470 
	C251.892929,181.606873 252.834167,180.679993 269.583557,181.797394 
	C272.306946,181.979080 273.093994,183.037628 272.804077,185.895477 
z"/>
<path fill="#438CC9" opacity="1.000000" stroke="none" 
	d="
M248.871246,200.455109 
	C243.160965,202.708008 237.835724,200.513138 232.422028,199.648544 
	C231.320236,199.472580 231.001312,198.356247 230.823837,197.354843 
	C229.961960,192.491226 227.451675,186.969849 229.731430,182.887314 
	C231.358658,179.973282 237.105972,182.010513 240.998947,181.918213 
	C249.010132,181.728241 249.017990,181.861389 249.011200,190.085800 
	C249.008469,193.396530 248.980026,196.707230 248.871246,200.455109 
z"/>
<path fill="#4289C5" opacity="1.000000" stroke="none" 
	d="
M279.064209,215.112030 
	C274.477234,218.470215 269.939575,221.139725 263.571808,222.959915 
	C268.338806,216.578339 271.497955,210.522568 273.404175,203.866333 
	C273.686676,202.879852 274.577362,202.337082 275.617004,202.035751 
	C282.042297,200.173447 287.912445,197.164032 294.113647,192.437729 
	C291.316010,202.222397 286.114075,209.068756 279.064209,215.112030 
z"/>
<path fill="#4289C5" opacity="1.000000" stroke="none" 
	d="
M227.145126,157.197128 
	C220.264816,159.444412 214.066895,162.206680 208.555405,166.735596 
	C209.638916,154.913223 223.990829,140.330414 238.389893,137.054947 
	C232.644516,143.234497 230.707184,150.446198 227.145126,157.197128 
z"/>
<path fill="#4289C5" opacity="1.000000" stroke="none" 
	d="
M208.925812,193.828644 
	C214.347488,197.043930 219.593750,200.129456 225.511627,201.772720 
	C227.541626,202.336411 228.455841,203.554153 228.998444,205.453415 
	C230.644226,211.213943 233.519211,216.371689 236.918304,221.691666 
	C222.736313,218.072327 213.747040,208.642227 208.612488,194.779175 
	C208.595474,194.231369 208.623978,194.049515 208.925812,193.828644 
z"/>
<path fill="#4289C5" opacity="1.000000" stroke="none" 
	d="
M293.128784,165.493164 
	C287.600708,162.699326 282.221832,159.416656 276.033630,157.768127 
	C274.482819,157.354996 273.515076,156.368835 273.043549,154.751114 
	C271.214478,148.475769 268.274445,142.737640 264.526886,137.278687 
	C278.517853,141.919708 288.483459,150.719971 293.128784,165.493164 
z"/>
<path fill="#428AC7" opacity="1.000000" stroke="none" 
	d="
M276.219666,171.921036 
	C275.877716,168.365402 275.584381,165.259369 275.225647,161.460678 
	C283.105133,164.100128 289.944855,167.160629 294.338959,174.038834 
	C295.887970,176.463562 296.382263,178.315094 292.273560,178.044083 
	C288.955536,177.825226 285.579803,177.710449 282.286774,178.071106 
	C277.767029,178.566147 275.718658,176.973175 276.219666,171.921036 
z"/>
<path fill="#428AC7" opacity="1.000000" stroke="none" 
	d="
M219.835037,178.000595 
	C215.086700,178.000656 210.815277,178.000656 206.450516,178.000656 
	C207.952515,171.285217 218.917572,162.102280 224.949402,162.022385 
	C226.729050,161.998810 226.792496,162.865997 226.595505,164.206329 
	C226.137207,167.324219 225.383011,170.452927 225.403320,173.572983 
	C225.428207,177.391052 223.800522,178.582657 219.835037,178.000595 
z"/>
<path fill="#428AC7" opacity="1.000000" stroke="none" 
	d="
M233.056183,154.070007 
	C235.478256,147.413605 238.284439,141.396317 243.884277,137.265564 
	C245.175186,136.313339 246.770401,134.859253 248.326218,135.618378 
	C249.738434,136.307419 248.958282,138.301437 248.990967,139.710144 
	C249.075760,143.366302 249.045807,147.026169 248.998611,150.683731 
	C248.984375,151.787918 249.352020,153.688049 248.148163,153.748047 
	C243.107346,153.999191 238.148422,156.459244 233.056183,154.070007 
z"/>
<path fill="#4289C5" opacity="1.000000" stroke="none" 
	d="
M253.123291,136.015747 
	C259.592926,136.200470 262.314667,141.122528 265.087555,145.750183 
	C266.827057,148.653244 268.816589,151.608139 268.630402,155.289780 
	C265.535248,155.062943 262.436279,154.608627 259.345795,154.660355 
	C254.160049,154.747131 251.975723,152.777481 252.798996,147.333572 
	C253.339539,143.759186 252.955780,140.044983 253.123291,136.015747 
z"/>
<path fill="#438BC8" opacity="1.000000" stroke="none" 
	d="
M249.015594,214.997742 
	C249.015594,215.978424 249.100952,216.496155 249.001099,216.975266 
	C248.519623,219.285339 250.468750,222.821411 247.853928,223.712128 
	C245.118988,224.643753 242.834763,221.703186 240.900742,219.654526 
	C237.532181,216.086319 235.436066,211.743286 233.578110,207.253296 
	C232.319672,204.212143 233.592560,203.717636 236.247208,204.277756 
	C237.547409,204.552078 238.863068,204.797409 240.184341,204.920471 
	C249.014069,205.743027 249.015167,205.731186 249.015594,214.997742 
z"/>
<path fill="#438BC8" opacity="1.000000" stroke="none" 
	d="
M257.403259,222.777618 
	C254.505142,224.531265 252.738968,224.708282 252.880722,220.813766 
	C253.007050,217.343338 253.198700,213.833008 252.828613,210.397705 
	C252.387985,206.307678 254.349167,205.145996 257.890289,205.148148 
	C259.376404,205.149048 260.862183,204.907867 262.348877,204.898605 
	C264.459747,204.885437 267.307861,202.900314 268.426788,204.588043 
	C269.801575,206.661697 267.410767,209.122086 266.452850,211.322617 
	C264.507904,215.790558 261.646973,219.604843 257.403259,222.777618 
z"/>
<path fill="#438BC8" opacity="1.000000" stroke="none" 
	d="
M221.772903,181.865295 
	C223.967407,181.794266 225.000320,182.297897 225.166641,184.320328 
	C225.530350,188.743011 226.128098,193.146439 226.697784,198.151138 
	C219.128601,195.797684 212.723221,192.640961 208.120224,186.559937 
	C207.243225,185.401352 205.961182,184.008026 206.659286,182.558655 
	C207.300674,181.227020 209.053497,181.912872 210.308472,181.886581 
	C213.970779,181.809845 217.635727,181.860199 221.772903,181.865295 
z"/>
<path fill="#438BC8" opacity="1.000000" stroke="none" 
	d="
M291.668671,181.861786 
	C296.483887,181.768845 295.369049,184.121964 293.925201,186.234314 
	C289.552826,192.631134 282.863800,195.484833 275.195801,198.260208 
	C275.750427,193.023865 276.236938,188.362106 276.741302,183.702286 
	C276.943634,181.833160 278.391754,181.888321 279.722229,181.878555 
	C283.550995,181.850449 287.380096,181.863037 291.668671,181.861786 
z"/>
<path fill="#F43131" opacity="1.000000" stroke="none" 
	d="
M163.737457,259.067017 
	C160.605118,266.867889 154.446579,263.157196 148.312988,264.189270 
	C153.586456,255.100433 158.271454,247.025803 163.056030,238.628815 
	C164.623489,245.044785 163.486893,251.862411 163.737457,259.067017 
z"/>
<path fill="#F63233" opacity="1.000000" stroke="none" 
	d="
M338.228638,239.030731 
	C343.089996,246.739838 347.887909,254.870041 352.736359,263.085815 
	C345.063843,265.254272 341.200653,264.472931 338.371490,260.190308 
	C338.121307,253.121826 338.143250,246.286819 338.228638,239.030731 
z"/>
<path fill="#E4E4E4" opacity="1.000000" stroke="none" 
	d="
M238.000381,280.760956 
	C253.639282,280.760956 268.778290,280.760956 283.917297,280.760956 
	C280.999084,283.185608 223.580307,283.595001 218.063934,282.155975 
	C218.034241,281.690979 218.004532,281.225952 217.974838,280.760956 
	C224.483383,280.760956 230.991943,280.760956 238.000381,280.760956 
z"/>
<path fill="#FFFFFF" opacity="1.000000" stroke="none" 
	d="
M238.000275,288.155975 
	C231.077744,288.155975 224.655106,288.155975 218.232468,288.155975 
	C218.236099,287.781555 218.239731,287.407166 218.243362,287.032745 
	C240.051300,287.032745 261.859222,287.032745 283.667175,287.032745 
	C283.675568,287.407166 283.683990,287.781555 283.692383,288.155975 
	C268.628326,288.155975 253.564255,288.155975 238.000275,288.155975 
z"/>
<path fill="#E53336" opacity="1.000000" stroke="none" 
	d="
M275.959900,136.331375 
	C276.367462,135.297150 276.410706,133.658066 277.803162,133.924164 
	C278.740570,134.103317 279.030212,135.304169 279.210510,136.604126 
	C278.226227,136.814972 277.226990,136.703903 275.959900,136.331375 
z"/>
<path fill="#4289C5" opacity="1.000000" stroke="none" 
	d="
M293.224365,165.767853 
	C293.467499,165.911530 293.616302,166.154434 293.765137,166.397354 
	C293.537933,166.428940 293.310760,166.460526 293.012634,166.278931 
	C292.941681,166.065735 293.130096,165.867081 293.224365,165.767853 
z"/>
<path fill="#4289C5" opacity="1.000000" stroke="none" 
	d="
M237.038712,221.968048 
	C237.313416,222.066071 237.520828,222.230728 237.728241,222.395386 
	C237.493774,222.446991 237.259293,222.498596 236.931946,222.360184 
	C236.839081,222.170166 236.971420,222.034698 237.038712,221.968048 
z"/>
<path fill="#4289C5" opacity="1.000000" stroke="none" 
	d="
M208.726807,194.259125 
	C208.474991,194.067490 208.382980,193.721756 208.290985,193.376007 
	C208.510132,193.369324 208.729279,193.362625 209.073792,193.572784 
	C209.199173,193.789642 208.886642,194.105042 208.726807,194.259125 
z"/>
<path fill="#30465B" opacity="1.000000" stroke="none" 
	d="
M210.364365,368.939514 
	C206.229370,369.784821 202.962219,369.276917 200.987213,365.553070 
	C199.288467,362.350067 199.420700,359.145630 201.312180,356.080475 
	C203.126358,353.140594 205.968506,352.501770 209.145798,352.982422 
	C212.339478,353.465607 214.185822,355.664093 214.834244,358.559143 
	C215.775513,362.761749 214.928696,366.521362 210.364365,368.939514 
z"/>
<path fill="#3E5366" opacity="1.000000" stroke="none" 
	d="
M159.961060,357.219055 
	C160.938965,359.269470 161.768311,361.002716 162.795624,363.149658 
	C160.089111,363.149658 157.883667,363.149658 155.623550,363.149658 
	C157.303558,357.713501 157.303558,357.713501 159.961060,357.219055 
z"/>
<path fill="#2B4257" opacity="1.000000" stroke="none" 
	d="
M174.975876,371.615845 
	C174.358261,371.955994 173.544037,371.976288 172.322571,371.998230 
	C171.811508,371.532440 171.707703,371.065002 171.793930,370.292816 
	C173.640594,368.874847 173.797241,370.967468 174.975876,371.615845 
z"/>
<path fill="#33495E" opacity="1.000000" stroke="none" 
	d="
M271.250061,361.404266 
	C269.335754,362.013519 267.735016,362.594788 266.116241,362.650482 
	C264.785431,362.696289 262.608185,363.580048 262.238007,361.660431 
	C261.717773,358.962738 260.896851,355.520660 262.639526,353.532013 
	C264.062134,351.908569 267.356415,352.702606 269.721771,353.436005 
	C271.814850,354.084961 272.851715,355.793823 272.898621,358.021698 
	C272.924744,359.262848 272.328186,360.245850 271.250061,361.404266 
z"/>
<path fill="#3E5366" opacity="1.000000" stroke="none" 
	d="
M291.203735,356.257874 
	C292.725494,358.156158 293.962860,360.292999 295.159393,362.359283 
	C294.752502,362.797729 294.546906,363.219727 294.322205,363.230164 
	C292.237701,363.326874 289.187286,364.425140 288.369415,362.625458 
	C287.524475,360.766296 289.898346,358.538269 291.203735,356.257874 
z"/>
<path fill="#33495E" opacity="1.000000" stroke="none" 
	d="
M346.774841,396.200836 
	C346.378571,400.901123 342.968231,399.901245 340.458954,399.711121 
	C337.946533,399.520752 338.685425,396.638428 339.186859,395.817108 
	C341.449677,392.110718 344.134064,393.906250 346.774841,396.200836 
z"/>
<path fill="#33495E" opacity="1.000000" stroke="none" 
	d="
M226.196213,396.807800 
	C227.331955,400.049835 226.802307,402.584412 223.908401,403.822479 
	C222.220444,404.544647 219.273499,405.400909 218.627640,403.269409 
	C217.780502,400.473572 216.828140,396.523071 219.206924,394.449677 
	C220.923462,392.953522 224.368484,393.566467 226.196213,396.807800 
z"/>
<path fill="#2B4257" opacity="1.000000" stroke="none" 
	d="
M251.746750,401.175446 
	C251.692581,400.551605 251.758743,400.242218 251.912445,399.466431 
	C252.560730,399.028595 253.121445,399.057159 254.101654,399.123901 
	C253.641510,399.943817 254.432037,402.629761 251.746750,401.175446 
z"/>
<path fill="#2B4257" opacity="1.000000" stroke="none" 
	d="
M314.380463,394.077393 
	C316.331207,395.555939 317.952179,396.989929 315.970093,399.596191 
	C313.749023,399.862366 311.247559,401.901489 309.776123,399.055420 
	C308.266663,396.135681 310.019623,394.161133 314.380463,394.077393 
z"/>
<path fill="#3E5366" opacity="1.000000" stroke="none" 
	d="
M202.224640,404.463959 
	C199.553421,404.179626 195.491821,406.311981 196.139984,400.595825 
	C198.060837,400.092072 199.978546,399.929199 201.898987,399.885773 
	C203.075119,399.859161 204.225388,400.197449 204.531403,401.515656 
	C204.906876,403.132935 203.803360,403.817047 202.224640,404.463959 
z"/>
<path fill="#3E5366" opacity="1.000000" stroke="none" 
	d="
M196.582642,397.823853 
	C196.163452,396.818726 196.153305,395.881897 196.158875,394.594086 
	C196.335251,394.216461 196.497818,394.158325 196.656235,394.167999 
	C199.080933,394.315460 203.175812,392.733276 203.282440,395.909912 
	C203.403961,399.529999 199.269577,397.464203 196.582642,397.823853 
z"/>
<path fill="#F63233" opacity="1.000000" stroke="none" 
	d="
M320.310760,299.388550 
	C326.120697,300.602356 325.895996,306.044983 329.279083,309.821228 
	C276.705627,309.821228 225.067413,309.821228 173.384094,309.821228 
	C176.263519,300.314362 177.462326,299.380890 186.648895,299.380890 
	C201.306061,299.380920 215.963501,299.427979 230.620148,299.340088 
	C233.439362,299.323181 235.930740,299.635712 237.663422,302.110657 
	C239.901520,305.307465 242.982147,306.189758 246.763153,305.884216 
	C250.072754,305.616821 253.428101,305.694000 256.749878,305.870605 
	C259.312134,306.006805 261.352600,305.268341 262.833313,303.220612 
	C265.235962,299.897888 268.467926,299.251465 272.417084,299.300323 
	C288.237732,299.496185 304.062225,299.382507 320.310760,299.388550 
z"/>
</svg>